<svg version="1.1" id="Layer_1" xmlns:x="ns_extend;" xmlns:i="ns_ai;" xmlns:graph="ns_graphs;" xmlns="http://www.w3.org/2000/svg" xmlns:xlink="http://www.w3.org/1999/xlink" x="0px" y="0px" viewBox="0 0 242.7 55" style="enable-background:new 0 0 242.7 55;" xml:space="preserve">
 <style type="text/css">
  .st0{fill:#002D5B;}
 </style>
 <metadata>
  <sfw xmlns="ns_sfw;">
   <slices>
   </slices>
   <sliceSourceBounds bottomLeftOrigin="true" height="55" width="242.7" x="16.9" y="-217.4">
   </sliceSourceBounds>
  </sfw>
 </metadata>
 <g>
  <path class="st0" d="M93.5,17.8c3.6,0,6.2,1.3,8.5,3.1l2.9-5.4c-3.3-2.4-6.5-4-11.5-4c-10.9,0-17.6,7.6-17.6,16.6
		c0,9,6.7,16.6,17.6,16.6c5,0,8.3-1.6,11.5-4l-2.9-5.4c-2.3,1.8-4.9,3.1-8.5,3.1c-6.5,0-10.5-4.5-10.5-10.2
		C83.1,22.3,87,17.8,93.5,17.8">
  </path>
  <path class="st0" d="M119,38.7c-3.4,0-6.3-2.7-6.3-6.4c0-3.7,2.9-6.4,6.3-6.4c3.4,0,6.3,2.8,6.3,6.4C125.3,36,122.4,38.7,119,38.7
		 M119,20C112.1,20,106,25,106,32.3c0,7.4,6.1,12.3,12.9,12.3c6.9,0,12.9-5,12.9-12.3C131.9,25,125.9,20,119,20">
  </path>
  <path class="st0" d="M142.1,25.7v-5.1h-6.7v23.6h6.8V31.3c0-3.1,2.6-4.6,5.1-4.6c0.7,0,1.9,0.1,2.9,0.3v-6.7
		c-0.7-0.1-1-0.2-1.7-0.2C146.5,20,142.9,21.4,142.1,25.7">
  </path>
  <path class="st0" d="M164.3,39c-3.8,0-6.1-3-6.1-6.8c0-3.6,2.1-6.7,5.9-6.7c3.7,0,6.3,2.7,6.3,7C170.4,36.9,167.6,39,164.3,39
		 M170.2,23.8c-1.6-2.2-4.4-3.7-7.5-3.7c-7.3,0-11.3,5.6-11.3,12.2c0,6.9,4.3,12.4,11.5,12.4c3.4,0,5.7-1.5,7.4-3.9v3.4h6.8V20.5
		h-6.8V23.8z">
  </path>
  <path class="st0" d="M194.1,26.2c1.2,0,3.9,0.3,6.2,2.3l3.1-5c-4-3-7.2-3.5-9.6-3.5c-8.1,0-13.2,5.3-13.2,12.3
		c0,7,5.1,12.3,13.2,12.3c2.4,0,5.6-0.5,9.6-3.5l-3.1-5c-2.3,2.1-5,2.3-6.2,2.3c-4,0-6.7-2.5-6.7-6.1
		C187.4,28.7,190.1,26.2,194.1,26.2">
  </path>
  <rect x="206.6" y="10.9" class="st0" width="6.8" height="33.2">
  </rect>
  <path class="st0" d="M229.9,25.6c2.3,0,5.4,1.1,5.8,4.2h-11.8C224.7,26.6,227.7,25.6,229.9,25.6 M231,39c-4.4,0-7.1-2.2-7.2-5.1h19
		c0-9.4-6.2-13.9-12.8-13.9c-7.6,0-13,5.5-13,12.4c0,6.7,4.8,12.2,13.5,12.2c3.2,0,7.6-1,11-4.6l-3.9-3.8
		C235.8,37.8,233.4,39,231,39">
  </path>
  <path class="st0" d="M31.1,21.9c-0.8-1.4-2.3-2.2-3.9-2.2h-3.9c-1.6,0-3.1,0.9-3.9,2.2l-1.9,3.4c-0.8,1.4-0.8,3.1,0,4.5l1.9,3.4
		c0.8,1.4,2.3,2.2,3.9,2.2h3.9c1.6,0,3.1-0.9,3.9-2.2l1.9-3.4c0.8-1.4,0.8-3.1,0-4.5L31.1,21.9z">
  </path>
  <path class="st0" d="M31.1,41.5c-0.8-1.4-2.3-2.2-3.9-2.2h-3.9c-1.6,0-3.1,0.9-3.9,2.2l-1.9,3.4c-0.8,1.4-0.8,3.1,0,4.5l1.9,3.4
		c0.8,1.4,2.3,2.2,3.9,2.2h3.9c1.6,0,3.1-0.9,3.9-2.2l1.9-3.4c0.8-1.4,0.8-3.1,0-4.5L31.1,41.5z">
  </path>
  <path class="st0" d="M48,12.1c-0.8-1.4-2.3-2.2-3.9-2.2h-3.9c-1.6,0-3.1,0.9-3.9,2.2l-1.9,3.4c-0.8,1.4-0.8,3.1,0,4.5l1.9,3.4
		c0.8,1.4,2.3,2.2,3.9,2.2h3.9c1.6,0,3.1-0.9,3.9-2.2l1.9-3.4c0.8-1.4,0.8-3.1,0-4.5L48,12.1z">
  </path>
  <path class="st0" d="M14.2,12.1c-0.8-1.4-2.3-2.2-3.9-2.2H6.5c-1.6,0-3.1,0.9-3.9,2.2l-1.9,3.4c-0.8,1.4-0.8,3.1,0,4.5l1.9,3.4
		c0.8,1.4,2.3,2.2,3.9,2.2h3.9c1.6,0,3.1-0.9,3.9-2.2l1.9-3.4c0.8-1.4,0.8-3.1,0-4.5L14.2,12.1z">
  </path>
  <path class="st0" d="M48,31.7c-0.8-1.4-2.3-2.2-3.9-2.2h-3.9c-1.6,0-3.1,0.9-3.9,2.2L34.4,35c-0.8,1.4-0.8,3.1,0,4.5l1.9,3.4
		c0.8,1.4,2.3,2.2,3.9,2.2h3.9c1.6,0,3.1-0.9,3.9-2.2l1.9-3.4c0.8-1.4,0.8-3.1,0-4.5L48,31.7z">
  </path>
  <path class="st0" d="M14.2,31.7c-0.8-1.4-2.3-2.2-3.9-2.2H6.4c-1.6,0-3.1,0.9-3.9,2.2L0.6,35c-0.8,1.4-0.8,3.1,0,4.5l1.9,3.4
		c0.8,1.4,2.3,2.2,3.9,2.2h3.9c1.6,0,3.1-0.9,3.9-2.2l1.9-3.4c0.8-1.4,0.8-3.1,0-4.5L14.2,31.7z">
  </path>
  <path class="st0" d="M31.1,2.2C30.3,0.9,28.9,0,27.3,0h-3.9c-1.6,0-3.1,0.9-3.9,2.2l-1.9,3.4c-0.8,1.4-0.8,3.1,0,4.5l1.9,3.4
		c0.8,1.4,2.3,2.2,3.9,2.2h3.9c1.6,0,3.1-0.9,3.9-2.2l1.9-3.4c0.8-1.4,0.8-3.1,0-4.5L31.1,2.2z">
  </path>
 </g>
</svg>