<svg width="113" height="32" fill="none" xmlns="http://www.w3.org/2000/svg"><g clip-path="url(#prefix__clip0_6192_78585)" fill="#FF4B27"><path d="M7.608 26.844l1.232-4.52c1.047-3.84 3.908-6.541 7.993-6.541 4.085 0 6.946 2.7 7.993 6.541l1.233 4.52c.12.431.42.602.857.484l4.221-1.131c.437-.118.61-.415.495-.846L25.688 3.408c-.12-.436-.425-.603-.862-.484l-4.238 1.155c-.437.118-.605.419-.49.85l1.608 5.91H11.96l1.607-5.91c.116-.431-.053-.732-.49-.85L8.84 2.924c-.437-.119-.742.048-.861.484L2.035 25.35c-.116.43.057.728.494.846l4.222 1.13c.436.119.737-.052.857-.483zM105.067 22.564c.12-.822.832-1.41 1.757-1.41.925 0 1.586.552 1.679 1.41h-3.436zm1.785 5.093c1.817 0 3.431-.977 3.977-2.415.032-.09-.009-.164-.153-.182l-2.09-.246c-.102-.014-.171.022-.226.114-.292.451-.81.702-1.466.702-1.032 0-1.762-.63-1.841-1.56h5.864c.051-.192.083-.57.083-.904 0-2.277-1.72-3.93-4.093-3.93-2.427 0-4.245 1.767-4.245 4.135 0 2.497 1.753 4.286 4.19 4.286zm-9.633-.22h2.17c.12 0 .184-.063.184-.182v-3.911c0-1.04.735-1.807 1.919-1.807.194 0 .375.032.546.064.125.023.199-.018.199-.142v-1.816c0-.119-.056-.187-.157-.205a2.657 2.657 0 00-.532-.05c-.976 0-1.586.451-1.92 1.396h-.055v-1.146c0-.118-.065-.182-.185-.182H97.22c-.12 0-.185.064-.185.182v7.617c0 .119.065.183.185.183zm-7.283-4.873c.12-.822.833-1.41 1.757-1.41.925 0 1.587.552 1.68 1.41h-3.437zm1.785 5.093c1.818 0 3.431-.977 3.977-2.415.033-.09-.01-.164-.152-.182l-2.09-.246c-.102-.014-.172.022-.227.114-.291.451-.81.702-1.466.702-1.031 0-1.762-.63-1.84-1.56h5.863c.05-.192.083-.57.083-.904 0-2.277-1.72-3.93-4.092-3.93-2.428 0-4.245 1.767-4.245 4.135 0 2.497 1.752 4.286 4.19 4.286zm-12.91-.22h2.154c.12 0 .185-.063.185-.182v-4.65c0-.753.564-1.315 1.369-1.315.772 0 1.28.516 1.28 1.342v4.623c0 .119.066.183.186.183h2.155c.12 0 .185-.064.185-.183v-5.157c0-1.77-1.073-2.861-2.766-2.861-1.114 0-1.873.47-2.353 1.369h-.056v-3.952c0-.119-.065-.183-.185-.183H78.81c-.12 0-.185.064-.185.183v10.601c0 .119.065.183.185.183zm-11.164 0h2.09c.097 0 .171-.04.204-.155l1.387-4.951h.055l1.388 4.951c.032.115.106.156.203.156h2.09c.102 0 .18-.05.209-.155l2.168-7.622c.037-.123-.027-.205-.157-.205h-2.21c-.111 0-.18.05-.208.16l-1.124 4.508h-.056l-1.193-4.513c-.027-.105-.092-.155-.203-.155h-1.868c-.111 0-.176.05-.204.155l-1.193 4.513h-.055l-1.124-4.508c-.028-.11-.097-.16-.208-.16h-2.21c-.13 0-.195.082-.158.205l2.169 7.621c.028.105.106.156.208.156zm-9.3 2.958c1.633 0 2.738-.835 3.381-2.574l3.015-8.155c.046-.128-.018-.21-.148-.21H62.32c-.102 0-.176.04-.213.15l-1.683 5.066h-.056l-1.71-5.066c-.033-.095-.098-.15-.209-.15h-2.303c-.138 0-.198.082-.148.21l3.15 7.986c-.222.379-.694.593-1.55.593-.19 0-.365-.018-.527-.059-.12-.027-.199.01-.203.128v1.602c0 .11.018.191.125.232.416.17.864.247 1.355.247zm-5.54-11.158c-1.114 0-1.872.47-2.353 1.369h-.056v-.968c0-.118-.064-.182-.185-.182H48.06c-.12 0-.185.064-.185.182v7.617c0 .119.064.183.184.183h2.155c.12 0 .185-.064.185-.183v-4.65c0-.753.565-1.315 1.37-1.315.771 0 1.28.516 1.28 1.342v4.623c0 .119.065.183.185.183h2.155c.12 0 .185-.064.185-.183v-5.157c0-1.77-1.073-2.861-2.765-2.861zm-12.55 4.34l1.295-3.546h.019l1.294 3.546h-2.608zm-3.916 3.86h2.344c.102 0 .176-.045.213-.145l.55-1.511h4.227l.55 1.51c.037.101.11.147.213.147h2.344c.139 0 .199-.082.148-.21l-4.3-10.629c-.037-.091-.102-.142-.213-.142h-1.711c-.111 0-.176.05-.213.142l-4.3 10.629c-.051.127.009.21.148.21zM90.043 9.393c0-1.027.735-1.793 1.706-1.793.985 0 1.72.766 1.72 1.793s-.735 1.794-1.72 1.794c-.971 0-1.706-.767-1.706-1.794zm1.442 7.311c2.733 0 4.495-1.424 4.495-3.765V5.948c0-.12-.065-.183-.185-.183h-1.891c-.12 0-.185.064-.185.183v.83h-.056c-.444-.78-1.29-1.232-2.413-1.232-2.137 0-3.732 1.63-3.732 3.847 0 2.204 1.581 3.792 3.704 3.792.943 0 1.678-.314 2.178-.944h.055v.588c0 1.164-.735 1.726-1.942 1.726-.814 0-1.48-.26-1.924-.867-.074-.1-.157-.115-.254-.055l-1.702 1.04c-.102.064-.13.146-.064.251.712 1.114 2.09 1.78 3.916 1.78zm-7.94-11.158c-1.114 0-1.873.47-2.353 1.369h-.056v-.967c0-.12-.065-.183-.185-.183h-2.155c-.12 0-.185.064-.185.183v7.616c0 .119.065.183.185.183h2.155c.12 0 .185-.064.185-.183v-4.65c0-.753.564-1.314 1.369-1.314.772 0 1.28.515 1.28 1.341v4.623c0 .119.066.183.186.183h2.155c.12 0 .185-.064.185-.183V8.407c0-1.77-1.073-2.861-2.766-2.861zm-9.207-2.108c0 .794.652 1.437 1.457 1.437s1.457-.643 1.457-1.437C77.252 2.643 76.6 2 75.795 2s-1.457.643-1.457 1.438zm.38 10.309h2.154c.12 0 .185-.064.185-.183V5.948c0-.12-.064-.183-.184-.183h-2.156c-.12 0-.184.064-.184.183v7.616c0 .119.064.183.184.183zm-4.745.219c1.924 0 3.38-1.11 3.38-2.843 0-1.169-.638-1.871-2.02-2.182l-1.577-.356c-.56-.127-.828-.328-.828-.625 0-.351.365-.602.87-.602.522 0 .929.269 1.118.734.047.11.112.151.222.137l1.869-.241c.13-.019.161-.055.148-.21-.111-1.141-1.434-2.232-3.311-2.232-1.85 0-3.297 1.059-3.297 2.674 0 1.219.744 2.026 2.164 2.328l1.373.292c.629.132.888.324.888.639 0 .406-.42.675-.994.675-.661 0-1.193-.36-1.36-.88-.037-.115-.102-.16-.208-.151l-1.974.146c-.13.009-.167.054-.162.196.046 1.433 1.581 2.5 3.7 2.5zm-9.743 0c1.059 0 1.808-.443 2.303-1.37h.055v.968c0 .119.065.183.185.183h2.155c.12 0 .185-.064.185-.183V5.948c0-.12-.065-.183-.185-.183h-2.155c-.12 0-.185.064-.185.183v4.65c0 .748-.56 1.314-1.336 1.314-.75 0-1.244-.525-1.244-1.342V5.948c0-.12-.065-.183-.185-.183h-2.155c-.12 0-.185.064-.185.183v5.156c0 1.771 1.082 2.862 2.747 2.862zM50.2 9.763c0-1.054.735-1.835 1.775-1.835s1.776.78 1.776 1.835c0 1.054-.735 1.834-1.776 1.834-1.04 0-1.775-.78-1.775-1.834zm1.775 4.216c2.456 0 4.3-1.807 4.3-4.216 0-2.41-1.844-4.217-4.3-4.217-2.455 0-4.3 1.807-4.3 4.217 0 2.41 1.845 4.216 4.3 4.216zm-8.028-.232h2.155c.12 0 .185-.064.185-.183V2.963c0-.119-.064-.183-.185-.183h-2.154c-.12 0-.185.064-.185.183V6.86h-4.537V2.963c0-.119-.065-.183-.185-.183h-2.155c-.12 0-.185.064-.185.183v10.601c0 .119.065.183.185.183h2.155c.12 0 .185-.064.185-.183V9.297h4.537v4.267c0 .119.064.183.184.183z"/></g><defs><clipPath id="prefix__clip0_6192_78585"><path fill="#fff" transform="translate(2 2)" d="M0 0h109v28.395H0z"/></clipPath></defs></svg>