<svg class="WunderflatsLogoBadge" height="36" id="WunderflatsLogoBadge-Header" viewBox="0 0 447.54 475.51" width="34" xmlns="http://www.w3.org/2000/svg"><defs><clipPath id="clipPath"><path class="clipPath" d="m43.51,369.84v-180.26L223.77,54.39l180.26,135.2v180.26l-68.37,51.28-111.89-83.91-111.89,83.91-68.37-51.28ZM0,167.83v223.77l111.89,83.91,111.89-83.91,111.89,83.91,111.89-83.91v-223.77L223.77,0,0,167.83Z" fill="#542EBC"></path></clipPath></defs><path d="m43.51,369.84v-180.26L223.77,54.39l180.26,135.2v180.26l-68.37,51.28-111.89-83.91-111.89,83.91-68.37-51.28ZM0,167.83v223.77l111.89,83.91,111.89-83.91,111.89,83.91,111.89-83.91v-223.77L223.77,0,0,167.83Z"></path><g clip-path="url(#clipPath)"><rect class="clipPath-second" fill="#542EBC" height="475.51" width="447.54"></rect></g></svg>